<svg xmlns="http://www.w3.org/2000/svg" xmlns:xlink="http://www.w3.org/1999/xlink" width="200" height="52" viewBox="0 0 200 52">
  <metadata><?xpacket begin="﻿" id="W5M0MpCehiHzreSzNTczkc9d"?>
<x:xmpmeta xmlns:x="adobe:ns:meta/" x:xmptk="Adobe XMP Core 5.6-c145 79.163499, 2018/08/13-16:40:22        ">
   <rdf:RDF xmlns:rdf="http://www.w3.org/1999/02/22-rdf-syntax-ns#">
      <rdf:Description rdf:about=""
            xmlns:xmp="http://ns.adobe.com/xap/1.0/">
         <xmp:CreatorTool>Adobe Photoshop CC 2019 (Windows)</xmp:CreatorTool>
      </rdf:Description>
   </rdf:RDF>
</x:xmpmeta>
                                                                                                    
                                                                                                    
                                                                                                    
                                                                                                    
                                                                                                    
                                                                                                    
                                                                                                    
                                                                                                    
                                                                                                    
                                                                                                    
                                                                                                    
                                                                                                    
                                                                                                    
                                                                                                    
                                                                                                    
                                                                                                    
                                                                                                    
                                                                                                    
                                                                                                    
                                                                                                    
                           
<?xpacket end="w"?></metadata>
<defs>
    <style>
      .cls-1 {
        fill: #282828;
      }

      .cls-1, .cls-2 {
        fill-rule: evenodd;
      }

      .cls-2 {
        fill: url(#linear-gradient);
      }

      .cls-3 {
        fill: url(#linear-gradient-2);
      }
    </style>
    <linearGradient id="linear-gradient" x1="21.969" y1="39.25" x2="21.969" y2="14.719" gradientUnits="userSpaceOnUse">
      <stop offset="0" stop-color="#1364d1"/>
      <stop offset="1" stop-color="#40aafc"/>
    </linearGradient>
    <linearGradient id="linear-gradient-2" x1="192.844" y1="35.063" x2="192.844" y2="30.156" gradientUnits="userSpaceOnUse">
      <stop offset="0" stop-color="#024eb5"/>
      <stop offset="1" stop-color="#40aafc"/>
    </linearGradient>
  </defs>
  <path id="saheb_giri" data-name="saheb giri" class="cls-1" d="M55.8,30.354c-0.185-6.1-9.784-4.2-9.784-7.6,0-1.134.988-1.9,2.87-1.9,1.913,0,3.056,1.012,3.179,2.483H55.58c-0.185-3.373-2.716-5.427-6.574-5.427-4.012,0-6.543,2.177-6.543,4.875,0,6.193,9.877,4.292,9.877,7.6,0,1.165-1.08,2.024-3.117,2.024-1.944,0-3.272-1.134-3.4-2.514H42.185c0.154,3.066,3.025,5.458,7.1,5.458C53.3,35.351,55.8,33.205,55.8,30.354Zm1.852-3.8c0,5.212,3.549,8.8,7.963,8.8a7.337,7.337,0,0,0,5.957-2.79v2.514h3.549V18.182H71.568v2.453a7.256,7.256,0,0,0-5.895-2.729C61.2,17.906,57.648,21.34,57.648,26.552Zm13.92,0.061c0,3.649-2.5,5.7-5.154,5.7-2.623,0-5.154-2.116-5.154-5.764s2.531-5.611,5.154-5.611C69.068,20.941,71.568,23,71.568,26.613Zm7.407,8.462h3.519V25.632c0-3.1,1.7-4.691,4.29-4.691,2.562,0,4.259,1.594,4.259,4.691v9.443h3.488V25.111c0-4.722-2.963-7.205-6.759-7.205a6.762,6.762,0,0,0-5.278,2.238V12.387H78.975V35.076Zm26.419-14.226c2.624,0,4.692,1.656,4.753,4.262h-9.413A4.62,4.62,0,0,1,105.394,20.849Zm7.963,9.2h-3.8a4.12,4.12,0,0,1-4.012,2.361,4.666,4.666,0,0,1-4.846-4.476H113.7a10.78,10.78,0,0,0,.123-1.717,7.9,7.9,0,0,0-8.271-8.309c-5.031,0-8.488,3.4-8.488,8.708s3.611,8.738,8.488,8.738A7.767,7.767,0,0,0,113.357,30.047Zm6.667-9.351V12.387h-3.519V35.076h3.519V32.623a7.245,7.245,0,0,0,5.926,2.729c4.475,0,7.993-3.587,7.993-8.8s-3.487-8.646-7.993-8.646A7.286,7.286,0,0,0,120.024,20.7Zm10.339,5.856c0,3.649-2.531,5.764-5.185,5.764-2.624,0-5.154-2.054-5.154-5.7,0-3.618,2.53-5.672,5.154-5.672C127.832,20.941,130.363,22.9,130.363,26.552Zm12.932,0.123c0,5.243,3.426,8.646,8.056,8.646a7.108,7.108,0,0,0,6.666-3.955V35.5c0,3.8-2.5,5.917-5.71,5.917-3.086,0-5.216-1.564-5.926-3.833h-2.129c0.679,3.5,3.7,5.7,8.055,5.7,4.63,0,7.871-3.1,7.871-7.788V18.335h-2.161v3.649a7.084,7.084,0,0,0-6.666-3.894C146.721,18.09,143.295,21.432,143.295,26.675Zm14.722,0.031c0,4.17-2.808,6.745-6.265,6.745-3.55,0-6.266-2.545-6.266-6.776,0-4.262,2.716-6.715,6.266-6.715C155.209,19.96,158.017,22.535,158.017,26.705Zm6.327,8.37h2.16V18.335h-2.16V35.076Zm1.08-19.9A1.563,1.563,0,0,0,167,13.583a1.574,1.574,0,0,0-3.148,0A1.563,1.563,0,0,0,165.424,15.177ZM172.8,25.724c0-4.2,2.377-5.458,5.186-5.458h0.586V18.028c-2.9,0-4.846,1.226-5.772,3.281V18.335h-2.16V35.076h2.16V25.724Zm8.241,9.351H183.2V18.335h-2.161V35.076Zm1.08-19.9a1.562,1.562,0,0,0,1.574-1.594,1.574,1.574,0,0,0-3.148,0A1.563,1.563,0,0,0,182.121,15.177Z"/>
  <path id="Rounded_Rectangle_1" data-name="Rounded Rectangle 1" class="cls-2" d="M13.333,14.717H30.617a3.7,3.7,0,0,1,3.7,3.7V35.542a3.7,3.7,0,0,1-3.7,3.7H13.333a3.7,3.7,0,0,1-3.7-3.7V18.421A3.7,3.7,0,0,1,13.333,14.717Z"/>
  <circle class="cls-3" cx="192.844" cy="32.609" r="2.469"/>
</svg>
